<?xml version="1.0" encoding="UTF-8" standalone="no"?>
<!DOCTYPE svg PUBLIC "-//W3C//DTD SVG 1.1//EN" "http://www.w3.org/Graphics/SVG/1.1/DTD/svg11.dtd">
<svg width="100%" height="100%" viewBox="0 0 20 20" version="1.1" xmlns="http://www.w3.org/2000/svg" xmlns:xlink="http://www.w3.org/1999/xlink" xml:space="preserve" xmlns:serif="http://www.serif.com/" style="fill-rule:evenodd;clip-rule:evenodd;stroke-linejoin:round;stroke-miterlimit:2;">
    <g transform="matrix(2.25,0,0,2.25,-5.75,-5.75)">
        <rect x="3" y="3" width="4" height="4"/>
        <path d="M7,3L7,7L3,7L3,3L7,3ZM6.111,3.889L3.889,3.889L3.889,6.111L6.111,6.111L6.111,3.889Z"/>
    </g>
    <g transform="matrix(1.8,0,0,1.8,-4.4,-4.4)">
        <circle cx="5.5" cy="10.5" r="2.5"/>
        <path d="M5.5,8C6.88,8 8,9.12 8,10.5C8,11.88 6.88,13 5.5,13C4.12,13 3,11.88 3,10.5C3,9.12 4.12,8 5.5,8ZM5.5,9.111C4.733,9.111 4.111,9.733 4.111,10.5C4.111,11.267 4.733,11.889 5.5,11.889C6.267,11.889 6.889,11.267 6.889,10.5C6.889,9.733 6.267,9.111 5.5,9.111Z"/>
    </g>
    <g transform="matrix(1.8,0,0,-3.6,-4.4,29.8)">
        <path d="M13,3L13,8L8,8L13,3Z"/>
        <path d="M13,3L8,8L13,8L13,3ZM11.889,5.353L11.889,7.444L9.798,7.444L11.889,5.353Z"/>
    </g>
    <g transform="matrix(1.125,0,0,1,-1.25,0)">
        <path d="M10,10L18,19L10,19L10,10Z"/>
        <path d="M10,10L18,19L10,19L10,10ZM11.778,14.828L11.778,17L13.708,17L11.778,14.828Z"/>
    </g>
</svg>
